<svg xmlns="http://www.w3.org/2000/svg" xmlns:xlink="http://www.w3.org/1999/xlink" width="500" zoomAndPan="magnify" viewBox="0 0 375 374.999991" height="500" preserveAspectRatio="xMidYMid meet" version="1.0"><defs><g/><clipPath id="id1"><path d="M 30.355469 37.5 L 337.855469 37.5 L 337.855469 347.25 L 30.355469 347.25 Z M 30.355469 37.5 " clip-rule="nonzero"/></clipPath></defs><g clip-path="url(#id1)"><path fill="#f7f4ef" d="M 184.105469 37.503906 C 99.191406 37.503906 30.355469 106.839844 30.355469 192.375 C 30.355469 277.910156 99.191406 347.246094 184.105469 347.246094 C 269.019531 347.246094 337.855469 277.910156 337.855469 192.375 C 337.855469 106.839844 269.019531 37.503906 184.105469 37.503906 " fill-opacity="1" fill-rule="nonzero"/></g><g fill="#433831" fill-opacity="1"><g transform="translate(65.673645, 275.285693)"><g><path d="M 221.375 -36.421875 L 221.375 -61.730469 L 127.480469 -61.730469 C 128.191406 -65.75 128.898438 -69.769531 129.371094 -74.027344 L 226.578125 -74.027344 L 226.578125 -98.390625 L 132.445312 -98.390625 L 132.445312 -110.925781 L 204.820312 -110.925781 L 204.820312 -134.574219 L 132.445312 -134.574219 L 132.445312 -146.636719 L 214.28125 -146.636719 L 214.28125 -171.472656 L 170.761719 -171.472656 C 175.964844 -178.332031 181.40625 -186.136719 186.609375 -194.414062 L 156.335938 -202.21875 C 152.550781 -192.996094 145.457031 -180.695312 139.542969 -171.472656 L 87.507812 -171.472656 L 94.367188 -174.546875 C 91.292969 -182.585938 83.960938 -193.941406 76.628906 -202.21875 L 51.558594 -192.285156 C 56.289062 -186.136719 61.257812 -178.566406 64.804688 -171.472656 L 22.46875 -171.472656 L 22.46875 -146.636719 L 103.355469 -146.636719 L 103.355469 -134.574219 L 33.347656 -134.574219 L 33.347656 -110.925781 L 103.355469 -110.925781 L 103.355469 -98.390625 L 12.535156 -98.390625 L 12.535156 -74.027344 L 99.570312 -74.027344 C 99.097656 -69.769531 98.390625 -65.515625 97.679688 -61.730469 L 19.628906 -61.730469 L 19.628906 -36.421875 L 87.507812 -36.421875 C 75.921875 -21.285156 53.6875 -11.117188 7.570312 -4.964844 C 13.007812 0.945312 19.628906 12.773438 21.523438 20.339844 C 80.179688 10.644531 106.195312 -6.148438 118.492188 -31.691406 C 137.648438 -1.183594 166.269531 14.425781 213.808594 20.8125 C 217.117188 12.773438 224.449219 0.710938 230.601562 -5.441406 C 191.101562 -8.515625 163.667969 -18.210938 146.875 -36.421875 Z M 221.375 -36.421875 "/></g></g></g></svg>