<svg xmlns="http://www.w3.org/2000/svg" xmlns:xlink="http://www.w3.org/1999/xlink" width="500" zoomAndPan="magnify" viewBox="0 0 375 374.999991" height="500" preserveAspectRatio="xMidYMid meet" version="1.0"><defs><g/></defs><g fill="#433831" fill-opacity="1"><g transform="translate(103.749608, 238.149194)"><g><path d="M 156.78125 -25.796875 L 156.78125 -43.71875 L 90.285156 -43.71875 C 90.785156 -46.566406 91.289062 -49.414062 91.625 -52.429688 L 160.46875 -52.429688 L 160.46875 -69.679688 L 93.800781 -69.679688 L 93.800781 -78.558594 L 145.058594 -78.558594 L 145.058594 -95.308594 L 93.800781 -95.308594 L 93.800781 -103.851562 L 151.757812 -103.851562 L 151.757812 -121.4375 L 120.9375 -121.4375 C 124.621094 -126.296875 128.472656 -131.824219 132.160156 -137.6875 L 110.71875 -143.214844 C 108.039062 -136.683594 103.015625 -127.972656 98.828125 -121.4375 L 61.976562 -121.4375 L 66.832031 -123.617188 C 64.65625 -129.3125 59.464844 -137.351562 54.269531 -143.214844 L 36.515625 -136.179688 C 39.867188 -131.824219 43.382812 -126.464844 45.894531 -121.4375 L 15.914062 -121.4375 L 15.914062 -103.851562 L 73.199219 -103.851562 L 73.199219 -95.308594 L 23.617188 -95.308594 L 23.617188 -78.558594 L 73.199219 -78.558594 L 73.199219 -69.679688 L 8.878906 -69.679688 L 8.878906 -52.429688 L 70.519531 -52.429688 C 70.183594 -49.414062 69.679688 -46.398438 69.179688 -43.71875 L 13.902344 -43.71875 L 13.902344 -25.796875 L 61.976562 -25.796875 C 53.769531 -15.074219 38.023438 -7.871094 5.359375 -3.515625 C 9.210938 0.671875 13.902344 9.046875 15.242188 14.40625 C 56.785156 7.539062 75.207031 -4.355469 83.917969 -22.445312 C 97.488281 -0.835938 117.753906 10.21875 151.421875 14.742188 C 153.765625 9.046875 158.960938 0.503906 163.316406 -3.851562 C 135.34375 -6.03125 115.910156 -12.898438 104.019531 -25.796875 Z M 156.78125 -25.796875 "/></g></g></g><g fill="#433831" fill-opacity="1"><g transform="translate(70.187073, 289.201827)"><g><path d="M 7.28125 0.234375 C 6.15625 0.234375 5.144531 0.0390625 4.25 -0.34375 C 3.351562 -0.726562 2.644531 -1.265625 2.125 -1.953125 C 1.601562 -2.640625 1.316406 -3.429688 1.265625 -4.328125 L 3.796875 -4.328125 C 3.867188 -3.597656 4.210938 -3 4.828125 -2.53125 C 5.441406 -2.0625 6.253906 -1.828125 7.265625 -1.828125 C 8.191406 -1.828125 8.921875 -2.03125 9.453125 -2.4375 C 9.992188 -2.851562 10.265625 -3.375 10.265625 -4 C 10.265625 -4.644531 9.976562 -5.125 9.40625 -5.4375 C 8.832031 -5.757812 7.945312 -6.070312 6.75 -6.375 C 5.65625 -6.65625 4.757812 -6.941406 4.0625 -7.234375 C 3.375 -7.535156 2.785156 -7.976562 2.296875 -8.5625 C 1.804688 -9.144531 1.5625 -9.910156 1.5625 -10.859375 C 1.5625 -11.617188 1.785156 -12.3125 2.234375 -12.9375 C 2.679688 -13.5625 3.316406 -14.054688 4.140625 -14.421875 C 4.960938 -14.796875 5.90625 -14.984375 6.96875 -14.984375 C 8.59375 -14.984375 9.90625 -14.566406 10.90625 -13.734375 C 11.914062 -12.910156 12.457031 -11.785156 12.53125 -10.359375 L 10.078125 -10.359375 C 10.023438 -11.128906 9.71875 -11.742188 9.15625 -12.203125 C 8.59375 -12.671875 7.835938 -12.90625 6.890625 -12.90625 C 6.003906 -12.90625 5.300781 -12.71875 4.78125 -12.34375 C 4.257812 -11.96875 4 -11.472656 4 -10.859375 C 4 -10.378906 4.15625 -9.984375 4.46875 -9.671875 C 4.789062 -9.359375 5.1875 -9.101562 5.65625 -8.90625 C 6.132812 -8.71875 6.796875 -8.507812 7.640625 -8.28125 C 8.691406 -8 9.550781 -7.71875 10.21875 -7.4375 C 10.882812 -7.15625 11.453125 -6.734375 11.921875 -6.171875 C 12.398438 -5.617188 12.648438 -4.894531 12.671875 -4 C 12.671875 -3.195312 12.445312 -2.472656 12 -1.828125 C 11.550781 -1.179688 10.914062 -0.675781 10.09375 -0.3125 C 9.28125 0.0507812 8.34375 0.234375 7.28125 0.234375 Z M 7.28125 0.234375 "/></g></g></g><g fill="#433831" fill-opacity="1"><g transform="translate(83.607416, 289.201827)"><g><path d="M 10.296875 0 L 4.515625 -6.5 L 4.515625 0 L 2.078125 0 L 2.078125 -19.90625 L 4.515625 -19.90625 L 4.515625 -8.203125 L 10.1875 -14.734375 L 13.609375 -14.734375 L 6.671875 -7.390625 L 13.640625 0 Z M 10.296875 0 "/></g></g></g><g fill="#433831" fill-opacity="1"><g transform="translate(96.839492, 289.201827)"><g><path d="M 3.328125 -17.125 C 2.867188 -17.125 2.476562 -17.285156 2.15625 -17.609375 C 1.832031 -17.929688 1.671875 -18.328125 1.671875 -18.796875 C 1.671875 -19.265625 1.832031 -19.660156 2.15625 -19.984375 C 2.476562 -20.304688 2.867188 -20.46875 3.328125 -20.46875 C 3.773438 -20.46875 4.15625 -20.304688 4.46875 -19.984375 C 4.789062 -19.660156 4.953125 -19.265625 4.953125 -18.796875 C 4.953125 -18.328125 4.789062 -17.929688 4.46875 -17.609375 C 4.15625 -17.285156 3.773438 -17.125 3.328125 -17.125 Z M 4.515625 -14.734375 L 4.515625 0 L 2.078125 0 L 2.078125 -14.734375 Z M 4.515625 -14.734375 "/></g></g></g><g fill="#433831" fill-opacity="1"><g transform="translate(102.836945, 289.201827)"><g><path d="M 9.25 -15 C 11.039062 -15 12.492188 -14.457031 13.609375 -13.375 C 14.722656 -12.289062 15.28125 -10.726562 15.28125 -8.6875 L 15.28125 0 L 12.859375 0 L 12.859375 -8.34375 C 12.859375 -9.8125 12.488281 -10.929688 11.75 -11.703125 C 11.019531 -12.484375 10.015625 -12.875 8.734375 -12.875 C 7.441406 -12.875 6.414062 -12.46875 5.65625 -11.65625 C 4.894531 -10.851562 4.515625 -9.679688 4.515625 -8.140625 L 4.515625 0 L 2.078125 0 L 2.078125 -14.734375 L 4.515625 -14.734375 L 4.515625 -12.640625 C 5.003906 -13.390625 5.664062 -13.96875 6.5 -14.375 C 7.332031 -14.789062 8.25 -15 9.25 -15 Z M 9.25 -15 "/></g></g></g><g fill="#433831" fill-opacity="1"><g transform="translate(119.430837, 289.201827)"><g><path d="M 1.15625 -7.390625 C 1.15625 -8.921875 1.457031 -10.253906 2.0625 -11.390625 C 2.675781 -12.523438 3.523438 -13.40625 4.609375 -14.03125 C 5.691406 -14.664062 6.9375 -14.984375 8.34375 -14.984375 C 10.144531 -14.984375 11.632812 -14.539062 12.8125 -13.65625 C 13.988281 -12.78125 14.765625 -11.5625 15.140625 -10 L 12.5 -10 C 12.25 -10.894531 11.757812 -11.601562 11.03125 -12.125 C 10.3125 -12.644531 9.414062 -12.90625 8.34375 -12.90625 C 6.9375 -12.90625 5.800781 -12.425781 4.9375 -11.46875 C 4.082031 -10.507812 3.65625 -9.148438 3.65625 -7.390625 C 3.65625 -5.617188 4.082031 -4.25 4.9375 -3.28125 C 5.800781 -2.3125 6.9375 -1.828125 8.34375 -1.828125 C 9.414062 -1.828125 10.304688 -2.078125 11.015625 -2.578125 C 11.734375 -3.078125 12.226562 -3.796875 12.5 -4.734375 L 15.140625 -4.734375 C 14.742188 -3.222656 13.953125 -2.015625 12.765625 -1.109375 C 11.585938 -0.210938 10.113281 0.234375 8.34375 0.234375 C 6.9375 0.234375 5.691406 -0.078125 4.609375 -0.703125 C 3.523438 -1.328125 2.675781 -2.210938 2.0625 -3.359375 C 1.457031 -4.503906 1.15625 -5.847656 1.15625 -7.390625 Z M 1.15625 -7.390625 "/></g></g></g><g fill="#433831" fill-opacity="1"><g transform="translate(135.137206, 289.201827)"><g><path d="M 1.15625 -7.421875 C 1.15625 -8.929688 1.457031 -10.253906 2.0625 -11.390625 C 2.675781 -12.523438 3.515625 -13.40625 4.578125 -14.03125 C 5.648438 -14.664062 6.835938 -14.984375 8.140625 -14.984375 C 9.429688 -14.984375 10.550781 -14.703125 11.5 -14.140625 C 12.457031 -13.585938 13.171875 -12.890625 13.640625 -12.046875 L 13.640625 -14.734375 L 16.109375 -14.734375 L 16.109375 0 L 13.640625 0 L 13.640625 -2.75 C 13.148438 -1.882812 12.425781 -1.171875 11.46875 -0.609375 C 10.507812 -0.046875 9.394531 0.234375 8.125 0.234375 C 6.8125 0.234375 5.625 -0.0820312 4.5625 -0.71875 C 3.507812 -1.363281 2.675781 -2.269531 2.0625 -3.4375 C 1.457031 -4.601562 1.15625 -5.929688 1.15625 -7.421875 Z M 13.640625 -7.390625 C 13.640625 -8.503906 13.410156 -9.472656 12.953125 -10.296875 C 12.503906 -11.117188 11.898438 -11.75 11.140625 -12.1875 C 10.378906 -12.632812 9.539062 -12.859375 8.625 -12.859375 C 7.71875 -12.859375 6.882812 -12.640625 6.125 -12.203125 C 5.375 -11.773438 4.773438 -11.148438 4.328125 -10.328125 C 3.878906 -9.503906 3.65625 -8.535156 3.65625 -7.421875 C 3.65625 -6.296875 3.878906 -5.316406 4.328125 -4.484375 C 4.773438 -3.648438 5.375 -3.007812 6.125 -2.5625 C 6.882812 -2.125 7.71875 -1.90625 8.625 -1.90625 C 9.539062 -1.90625 10.378906 -2.125 11.140625 -2.5625 C 11.898438 -3.007812 12.503906 -3.648438 12.953125 -4.484375 C 13.410156 -5.316406 13.640625 -6.285156 13.640625 -7.390625 Z M 13.640625 -7.390625 "/></g></g></g><g fill="#433831" fill-opacity="1"><g transform="translate(152.699302, 289.201827)"><g><path d="M 4.515625 -12.34375 C 4.941406 -13.1875 5.554688 -13.835938 6.359375 -14.296875 C 7.160156 -14.765625 8.132812 -15 9.28125 -15 L 9.28125 -12.484375 L 8.625 -12.484375 C 5.882812 -12.484375 4.515625 -10.992188 4.515625 -8.015625 L 4.515625 0 L 2.078125 0 L 2.078125 -14.734375 L 4.515625 -14.734375 Z M 4.515625 -12.34375 "/></g></g></g><g fill="#433831" fill-opacity="1"><g transform="translate(162.112359, 289.201827)"><g><path d="M 15.515625 -7.9375 C 15.515625 -7.46875 15.488281 -6.972656 15.4375 -6.453125 L 3.65625 -6.453125 C 3.75 -5.003906 4.242188 -3.867188 5.140625 -3.046875 C 6.046875 -2.234375 7.144531 -1.828125 8.4375 -1.828125 C 9.5 -1.828125 10.382812 -2.070312 11.09375 -2.5625 C 11.800781 -3.0625 12.296875 -3.722656 12.578125 -4.546875 L 15.21875 -4.546875 C 14.820312 -3.128906 14.03125 -1.976562 12.84375 -1.09375 C 11.664062 -0.207031 10.195312 0.234375 8.4375 0.234375 C 7.039062 0.234375 5.789062 -0.078125 4.6875 -0.703125 C 3.582031 -1.328125 2.71875 -2.21875 2.09375 -3.375 C 1.46875 -4.53125 1.15625 -5.867188 1.15625 -7.390625 C 1.15625 -8.921875 1.457031 -10.257812 2.0625 -11.40625 C 2.675781 -12.550781 3.535156 -13.429688 4.640625 -14.046875 C 5.742188 -14.671875 7.007812 -14.984375 8.4375 -14.984375 C 9.84375 -14.984375 11.082031 -14.675781 12.15625 -14.0625 C 13.226562 -13.457031 14.054688 -12.617188 14.640625 -11.546875 C 15.222656 -10.484375 15.515625 -9.28125 15.515625 -7.9375 Z M 12.984375 -8.4375 C 12.984375 -9.375 12.773438 -10.175781 12.359375 -10.84375 C 11.953125 -11.519531 11.394531 -12.03125 10.6875 -12.375 C 9.976562 -12.726562 9.195312 -12.90625 8.34375 -12.90625 C 7.101562 -12.90625 6.046875 -12.507812 5.171875 -11.71875 C 4.304688 -10.9375 3.8125 -9.84375 3.6875 -8.4375 Z M 12.984375 -8.4375 "/></g></g></g><g fill="#433831" fill-opacity="1"><g transform="translate(178.168355, 289.201827)"><g/></g></g><g fill="#433831" fill-opacity="1"><g transform="translate(184.730592, 289.201827)"><g><path d="M 16.453125 0 L 14.015625 -2.46875 C 13.097656 -1.519531 12.117188 -0.816406 11.078125 -0.359375 C 10.035156 0.0976562 8.863281 0.328125 7.5625 0.328125 C 6.269531 0.328125 5.125 0.09375 4.125 -0.375 C 3.132812 -0.84375 2.363281 -1.503906 1.8125 -2.359375 C 1.269531 -3.222656 1 -4.226562 1 -5.375 C 1 -6.6875 1.367188 -7.835938 2.109375 -8.828125 C 2.859375 -9.828125 3.957031 -10.613281 5.40625 -11.1875 C 4.832031 -11.863281 4.421875 -12.488281 4.171875 -13.0625 C 3.921875 -13.632812 3.796875 -14.265625 3.796875 -14.953125 C 3.796875 -15.742188 3.992188 -16.457031 4.390625 -17.09375 C 4.796875 -17.726562 5.375 -18.222656 6.125 -18.578125 C 6.882812 -18.941406 7.753906 -19.125 8.734375 -19.125 C 9.703125 -19.125 10.546875 -18.929688 11.265625 -18.546875 C 11.984375 -18.171875 12.519531 -17.644531 12.875 -16.96875 C 13.238281 -16.300781 13.398438 -15.554688 13.359375 -14.734375 L 10.921875 -14.734375 C 10.929688 -15.472656 10.722656 -16.050781 10.296875 -16.46875 C 9.867188 -16.894531 9.3125 -17.109375 8.625 -17.109375 C 7.914062 -17.109375 7.335938 -16.90625 6.890625 -16.5 C 6.453125 -16.09375 6.234375 -15.578125 6.234375 -14.953125 C 6.234375 -14.410156 6.378906 -13.890625 6.671875 -13.390625 C 6.972656 -12.890625 7.472656 -12.269531 8.171875 -11.53125 L 13.765625 -5.921875 L 14.25 -6.671875 L 16.078125 -9.734375 L 18.71875 -9.734375 L 16.515625 -5.921875 C 16.203125 -5.378906 15.84375 -4.8125 15.4375 -4.21875 L 19.65625 0 Z M 7.5625 -1.78125 C 8.53125 -1.78125 9.398438 -1.96875 10.171875 -2.34375 C 10.953125 -2.71875 11.691406 -3.300781 12.390625 -4.09375 L 6.890625 -9.625 C 4.585938 -8.75 3.4375 -7.359375 3.4375 -5.453125 C 3.4375 -4.398438 3.816406 -3.523438 4.578125 -2.828125 C 5.347656 -2.128906 6.34375 -1.78125 7.5625 -1.78125 Z M 7.5625 -1.78125 "/></g></g></g><g fill="#433831" fill-opacity="1"><g transform="translate(203.987037, 289.201827)"><g/></g></g><g fill="#433831" fill-opacity="1"><g transform="translate(210.549273, 289.201827)"><g><path d="M 4.515625 -12 C 5.015625 -12.875 5.75 -13.585938 6.71875 -14.140625 C 7.6875 -14.703125 8.789062 -14.984375 10.03125 -14.984375 C 11.351562 -14.984375 12.539062 -14.664062 13.59375 -14.03125 C 14.65625 -13.40625 15.488281 -12.523438 16.09375 -11.390625 C 16.707031 -10.253906 17.015625 -8.929688 17.015625 -7.421875 C 17.015625 -5.929688 16.707031 -4.601562 16.09375 -3.4375 C 15.488281 -2.269531 14.65625 -1.363281 13.59375 -0.71875 C 12.53125 -0.0820312 11.34375 0.234375 10.03125 0.234375 C 8.757812 0.234375 7.644531 -0.0390625 6.6875 -0.59375 C 5.726562 -1.144531 5.003906 -1.851562 4.515625 -2.71875 L 4.515625 0 L 2.078125 0 L 2.078125 -19.90625 L 4.515625 -19.90625 Z M 14.515625 -7.421875 C 14.515625 -8.535156 14.289062 -9.503906 13.84375 -10.328125 C 13.394531 -11.148438 12.789062 -11.773438 12.03125 -12.203125 C 11.269531 -12.640625 10.429688 -12.859375 9.515625 -12.859375 C 8.617188 -12.859375 7.789062 -12.632812 7.03125 -12.1875 C 6.269531 -11.75 5.660156 -11.113281 5.203125 -10.28125 C 4.742188 -9.445312 4.515625 -8.484375 4.515625 -7.390625 C 4.515625 -6.285156 4.742188 -5.316406 5.203125 -4.484375 C 5.660156 -3.648438 6.269531 -3.007812 7.03125 -2.5625 C 7.789062 -2.125 8.617188 -1.90625 9.515625 -1.90625 C 10.429688 -1.90625 11.269531 -2.125 12.03125 -2.5625 C 12.789062 -3.007812 13.394531 -3.648438 13.84375 -4.484375 C 14.289062 -5.316406 14.515625 -6.296875 14.515625 -7.421875 Z M 14.515625 -7.421875 "/></g></g></g><g fill="#433831" fill-opacity="1"><g transform="translate(228.111364, 289.201827)"><g><path d="M 15.515625 -7.9375 C 15.515625 -7.46875 15.488281 -6.972656 15.4375 -6.453125 L 3.65625 -6.453125 C 3.75 -5.003906 4.242188 -3.867188 5.140625 -3.046875 C 6.046875 -2.234375 7.144531 -1.828125 8.4375 -1.828125 C 9.5 -1.828125 10.382812 -2.070312 11.09375 -2.5625 C 11.800781 -3.0625 12.296875 -3.722656 12.578125 -4.546875 L 15.21875 -4.546875 C 14.820312 -3.128906 14.03125 -1.976562 12.84375 -1.09375 C 11.664062 -0.207031 10.195312 0.234375 8.4375 0.234375 C 7.039062 0.234375 5.789062 -0.078125 4.6875 -0.703125 C 3.582031 -1.328125 2.71875 -2.21875 2.09375 -3.375 C 1.46875 -4.53125 1.15625 -5.867188 1.15625 -7.390625 C 1.15625 -8.921875 1.457031 -10.257812 2.0625 -11.40625 C 2.675781 -12.550781 3.535156 -13.429688 4.640625 -14.046875 C 5.742188 -14.671875 7.007812 -14.984375 8.4375 -14.984375 C 9.84375 -14.984375 11.082031 -14.675781 12.15625 -14.0625 C 13.226562 -13.457031 14.054688 -12.617188 14.640625 -11.546875 C 15.222656 -10.484375 15.515625 -9.28125 15.515625 -7.9375 Z M 12.984375 -8.4375 C 12.984375 -9.375 12.773438 -10.175781 12.359375 -10.84375 C 11.953125 -11.519531 11.394531 -12.03125 10.6875 -12.375 C 9.976562 -12.726562 9.195312 -12.90625 8.34375 -12.90625 C 7.101562 -12.90625 6.046875 -12.507812 5.171875 -11.71875 C 4.304688 -10.9375 3.8125 -9.84375 3.6875 -8.4375 Z M 12.984375 -8.4375 "/></g></g></g><g fill="#433831" fill-opacity="1"><g transform="translate(244.167355, 289.201827)"><g><path d="M 1.15625 -7.421875 C 1.15625 -8.929688 1.457031 -10.253906 2.0625 -11.390625 C 2.675781 -12.523438 3.515625 -13.40625 4.578125 -14.03125 C 5.648438 -14.664062 6.835938 -14.984375 8.140625 -14.984375 C 9.429688 -14.984375 10.550781 -14.703125 11.5 -14.140625 C 12.457031 -13.585938 13.171875 -12.890625 13.640625 -12.046875 L 13.640625 -14.734375 L 16.109375 -14.734375 L 16.109375 0 L 13.640625 0 L 13.640625 -2.75 C 13.148438 -1.882812 12.425781 -1.171875 11.46875 -0.609375 C 10.507812 -0.046875 9.394531 0.234375 8.125 0.234375 C 6.8125 0.234375 5.625 -0.0820312 4.5625 -0.71875 C 3.507812 -1.363281 2.675781 -2.269531 2.0625 -3.4375 C 1.457031 -4.601562 1.15625 -5.929688 1.15625 -7.421875 Z M 13.640625 -7.390625 C 13.640625 -8.503906 13.410156 -9.472656 12.953125 -10.296875 C 12.503906 -11.117188 11.898438 -11.75 11.140625 -12.1875 C 10.378906 -12.632812 9.539062 -12.859375 8.625 -12.859375 C 7.71875 -12.859375 6.882812 -12.640625 6.125 -12.203125 C 5.375 -11.773438 4.773438 -11.148438 4.328125 -10.328125 C 3.878906 -9.503906 3.65625 -8.535156 3.65625 -7.421875 C 3.65625 -6.296875 3.878906 -5.316406 4.328125 -4.484375 C 4.773438 -3.648438 5.375 -3.007812 6.125 -2.5625 C 6.882812 -2.125 7.71875 -1.90625 8.625 -1.90625 C 9.539062 -1.90625 10.378906 -2.125 11.140625 -2.5625 C 11.898438 -3.007812 12.503906 -3.648438 12.953125 -4.484375 C 13.410156 -5.316406 13.640625 -6.285156 13.640625 -7.390625 Z M 13.640625 -7.390625 "/></g></g></g><g fill="#433831" fill-opacity="1"><g transform="translate(261.729457, 289.201827)"><g><path d="M 15.140625 -14.734375 L 15.140625 0 L 12.6875 0 L 12.6875 -2.171875 C 12.226562 -1.421875 11.582031 -0.832031 10.75 -0.40625 C 9.914062 0.0078125 8.992188 0.21875 7.984375 0.21875 C 6.835938 0.21875 5.804688 -0.015625 4.890625 -0.484375 C 3.972656 -0.960938 3.25 -1.675781 2.71875 -2.625 C 2.195312 -3.582031 1.9375 -4.742188 1.9375 -6.109375 L 1.9375 -14.734375 L 4.359375 -14.734375 L 4.359375 -6.421875 C 4.359375 -4.972656 4.722656 -3.859375 5.453125 -3.078125 C 6.191406 -2.296875 7.195312 -1.90625 8.46875 -1.90625 C 9.78125 -1.90625 10.8125 -2.304688 11.5625 -3.109375 C 12.3125 -3.921875 12.6875 -5.097656 12.6875 -6.640625 L 12.6875 -14.734375 Z M 15.140625 -14.734375 "/></g></g></g><g fill="#433831" fill-opacity="1"><g transform="translate(278.323344, 289.201827)"><g><path d="M 5.0625 -12.71875 L 5.0625 -4.03125 C 5.0625 -3.3125 5.210938 -2.804688 5.515625 -2.515625 C 5.816406 -2.222656 6.34375 -2.078125 7.09375 -2.078125 L 8.90625 -2.078125 L 8.90625 0 L 6.703125 0 C 5.335938 0 4.3125 -0.3125 3.625 -0.9375 C 2.945312 -1.5625 2.609375 -2.59375 2.609375 -4.03125 L 2.609375 -12.71875 L 0.703125 -12.71875 L 0.703125 -14.734375 L 2.609375 -14.734375 L 2.609375 -18.453125 L 5.0625 -18.453125 L 5.0625 -14.734375 L 8.90625 -14.734375 L 8.90625 -12.71875 Z M 5.0625 -12.71875 "/></g></g></g><g fill="#433831" fill-opacity="1"><g transform="translate(287.494341, 289.201827)"><g><path d="M 14.765625 -14.734375 L 5.890625 6.9375 L 3.359375 6.9375 L 6.265625 -0.15625 L 0.328125 -14.734375 L 3.03125 -14.734375 L 7.65625 -2.796875 L 12.234375 -14.734375 Z M 14.765625 -14.734375 "/></g></g></g></svg>