<svg xmlns="http://www.w3.org/2000/svg" xmlns:xlink="http://www.w3.org/1999/xlink" width="500" zoomAndPan="magnify" viewBox="0 0 375 374.999991" height="500" preserveAspectRatio="xMidYMid meet" version="1.0"><defs><clipPath id="id1"><path d="M 70.3125 128.171875 L 150.5625 128.171875 L 150.5625 204.671875 L 70.3125 204.671875 Z M 70.3125 128.171875 " clip-rule="nonzero"/></clipPath><clipPath id="id2"><path d="M 214 214.417969 L 264 214.417969 L 264 262.417969 L 214 262.417969 Z M 214 214.417969 " clip-rule="nonzero"/></clipPath><clipPath id="id3"><path d="M 91 39 L 280 39 L 280 358 L 91 358 Z M 91 39 " clip-rule="nonzero"/></clipPath><clipPath id="id4"><path d="M 58.023438 95.007812 L 261.574219 37.570312 L 337.339844 306.085938 L 133.789062 363.523438 Z M 58.023438 95.007812 " clip-rule="nonzero"/></clipPath><clipPath id="id5"><path d="M 58.023438 95.007812 L 261.574219 37.570312 L 337.339844 306.085938 L 133.789062 363.523438 Z M 58.023438 95.007812 " clip-rule="nonzero"/></clipPath><clipPath id="id6"><path d="M 199 275.769531 L 228.824219 275.769531 L 228.824219 304.269531 L 199 304.269531 Z M 199 275.769531 " clip-rule="nonzero"/></clipPath></defs><g clip-path="url(#id1)"><path fill="#f1cfc2" d="M 148.652344 150.308594 C 147.277344 146.15625 145.355469 142.558594 142.878906 139.933594 C 141.640625 138.546875 140.128906 137.164062 138.480469 136.058594 C 137.105469 135.089844 135.457031 134.261719 133.945312 133.570312 C 132.84375 133.152344 131.746094 132.738281 130.78125 132.324219 C 130.09375 132.046875 129.40625 131.769531 128.71875 131.492188 L 127.894531 131.078125 C 126.660156 130.523438 125.285156 129.972656 123.910156 129.558594 C 121.847656 129.140625 119.785156 128.863281 117.859375 128.589844 C 116.074219 128.3125 114.285156 128.3125 112.222656 128.171875 C 111.8125 128.171875 111.261719 128.171875 110.851562 128.171875 C 107.824219 128.171875 104.664062 128.449219 100.953125 129.003906 C 97.789062 129.417969 94.492188 130.25 91.328125 131.492188 C 89.679688 132.046875 88.03125 132.738281 86.65625 133.570312 C 85.144531 134.398438 83.632812 135.644531 82.257812 137.164062 C 80.882812 138.824219 79.644531 140.070312 78.683594 141.453125 C 78.269531 142.144531 77.71875 142.835938 77.308594 143.527344 C 77.03125 143.945312 76.757812 144.359375 76.484375 144.773438 C 75.796875 145.878906 75.109375 146.847656 74.695312 147.957031 C 74.144531 149.0625 73.597656 150.445312 73.183594 151.96875 C 72.910156 153.074219 72.632812 154.179688 72.496094 155.289062 C 72.359375 155.5625 72.359375 155.980469 72.222656 156.253906 C 71.808594 158.054688 71.535156 159.851562 71.257812 162.34375 C 70.847656 165.800781 70.710938 169.398438 70.984375 173.410156 C 71.121094 175.207031 71.257812 177.421875 71.808594 179.496094 C 72.359375 181.433594 73.046875 183.371094 74.007812 185.167969 C 74.832031 186.691406 75.933594 188.347656 77.445312 190.148438 C 78.269531 191.253906 79.371094 192.222656 80.332031 193.191406 L 81.15625 194.019531 C 83.769531 196.648438 86.929688 198.863281 90.78125 200.800781 C 92.566406 201.628906 94.492188 202.320312 96.828125 203.011719 C 99.027344 203.566406 101.363281 203.980469 103.152344 204.257812 C 104.800781 204.535156 106.589844 204.535156 108.925781 204.671875 C 109.476562 204.671875 109.886719 204.671875 110.4375 204.671875 C 110.851562 204.671875 111.261719 204.671875 111.675781 204.671875 C 113.050781 204.671875 114.285156 204.398438 115.25 204.257812 C 117.035156 203.980469 118.824219 203.566406 120.746094 202.875 C 122.671875 202.320312 124.597656 201.351562 126.382812 200.523438 C 127.207031 200.109375 128.171875 199.691406 129.132812 199.140625 C 129.820312 198.726562 130.507812 198.308594 131.058594 197.894531 L 131.46875 197.617188 C 132.980469 196.511719 134.492188 195.265625 136.417969 193.46875 C 138.066406 191.945312 139.304688 190.5625 140.40625 189.316406 C 141.917969 187.65625 143.015625 185.582031 144.117188 183.785156 C 145.214844 181.847656 146.042969 179.773438 146.867188 177.835938 C 147.554688 176.175781 148.242188 174.378906 148.652344 172.71875 C 149.203125 170.78125 149.476562 168.707031 149.753906 166.769531 C 149.890625 165.109375 150.027344 163.3125 150.164062 161.234375 C 150.164062 159.023438 149.890625 156.808594 149.617188 155.011719 C 149.617188 153.628906 149.203125 152.105469 148.652344 150.308594 Z M 148.652344 150.308594 " fill-opacity="1" fill-rule="nonzero"/></g><g clip-path="url(#id2)"><path fill="#93cbbe" d="M 262.972656 228.304688 C 262.113281 225.699219 260.910156 223.445312 259.359375 221.792969 C 258.585938 220.925781 257.636719 220.058594 256.605469 219.363281 C 255.746094 218.757812 254.710938 218.234375 253.765625 217.800781 C 253.078125 217.542969 252.386719 217.28125 251.785156 217.019531 C 251.355469 216.847656 250.925781 216.671875 250.496094 216.5 L 249.976562 216.238281 C 249.203125 215.890625 248.34375 215.546875 247.480469 215.285156 C 246.191406 215.023438 244.898438 214.851562 243.695312 214.675781 C 242.578125 214.503906 241.457031 214.503906 240.167969 214.417969 C 239.910156 214.417969 239.5625 214.417969 239.304688 214.417969 C 237.414062 214.417969 235.433594 214.589844 233.109375 214.9375 C 231.128906 215.199219 229.0625 215.71875 227.085938 216.5 C 226.050781 216.847656 225.019531 217.28125 224.160156 217.800781 C 223.210938 218.324219 222.265625 219.105469 221.402344 220.058594 C 220.542969 221.101562 219.769531 221.882812 219.167969 222.75 C 218.910156 223.183594 218.5625 223.617188 218.304688 224.050781 C 218.132812 224.3125 217.960938 224.574219 217.789062 224.832031 C 217.359375 225.527344 216.929688 226.136719 216.671875 226.828125 C 216.328125 227.523438 215.980469 228.390625 215.722656 229.347656 C 215.550781 230.039062 215.378906 230.734375 215.292969 231.429688 C 215.207031 231.601562 215.207031 231.863281 215.121094 232.039062 C 214.863281 233.164062 214.691406 234.292969 214.519531 235.855469 C 214.261719 238.027344 214.175781 240.28125 214.347656 242.800781 C 214.433594 243.929688 214.519531 245.316406 214.863281 246.621094 C 215.207031 247.835938 215.636719 249.050781 216.242188 250.179688 C 216.757812 251.132812 217.445312 252.175781 218.390625 253.304688 C 218.910156 253.996094 219.597656 254.605469 220.199219 255.210938 L 220.714844 255.734375 C 222.351562 257.382812 224.332031 258.769531 226.742188 259.988281 C 227.859375 260.507812 229.0625 260.941406 230.527344 261.375 C 231.902344 261.722656 233.367188 261.984375 234.484375 262.15625 C 235.519531 262.332031 236.636719 262.332031 238.101562 262.417969 C 238.445312 262.417969 238.703125 262.417969 239.046875 262.417969 C 239.304688 262.417969 239.5625 262.417969 239.820312 262.417969 C 240.683594 262.417969 241.457031 262.242188 242.058594 262.15625 C 243.179688 261.984375 244.296875 261.722656 245.503906 261.289062 C 246.707031 260.941406 247.914062 260.332031 249.03125 259.8125 C 249.546875 259.550781 250.148438 259.292969 250.753906 258.945312 C 251.183594 258.683594 251.613281 258.425781 251.957031 258.164062 L 252.214844 257.988281 C 253.164062 257.296875 254.109375 256.515625 255.3125 255.386719 C 256.347656 254.429688 257.121094 253.5625 257.808594 252.78125 C 258.757812 251.742188 259.445312 250.4375 260.132812 249.308594 C 260.820312 248.09375 261.339844 246.792969 261.855469 245.578125 C 262.285156 244.535156 262.714844 243.40625 262.972656 242.367188 C 263.316406 241.152344 263.488281 239.847656 263.664062 238.632812 C 263.75 237.59375 263.835938 236.464844 263.921875 235.160156 C 263.921875 233.773438 263.75 232.382812 263.578125 231.257812 C 263.578125 230.386719 263.316406 229.433594 262.972656 228.304688 Z M 262.972656 228.304688 " fill-opacity="1" fill-rule="nonzero"/></g><g clip-path="url(#id3)"><g clip-path="url(#id4)"><g clip-path="url(#id5)"><path fill="#433831" d="M 258.792969 62.371094 C 256.351562 69.363281 252.472656 75.21875 248.671875 81.097656 C 241.785156 91.761719 233.347656 101.183594 224.789062 110.488281 C 215.335938 120.757812 205.625 130.789062 196.679688 141.53125 C 185.433594 155.035156 176.316406 169.886719 168.222656 185.417969 C 161.199219 198.902344 155.371094 212.898438 152.164062 227.792969 C 146.734375 253.019531 145.183594 278.519531 147.816406 304.253906 C 149.199219 317.808594 151.246094 331.226562 155.03125 344.332031 C 155.898438 347.347656 156.972656 350.304688 157.953125 353.285156 C 158.042969 353.5625 158.164062 353.828125 158.234375 354.109375 C 158.546875 355.324219 158.613281 356.523438 157.128906 356.964844 C 155.769531 357.367188 155.082031 356.441406 154.695312 355.316406 C 153.789062 352.675781 152.875 350.035156 152.066406 347.367188 C 148.304688 334.980469 146.136719 322.285156 144.605469 309.449219 C 142.648438 293.03125 142.300781 276.585938 143.699219 260.121094 C 144.867188 246.417969 146.550781 232.777344 150.40625 219.523438 C 155.46875 202.128906 163.289062 185.980469 172.238281 170.292969 C 184.019531 149.648438 199.386719 131.90625 215.65625 114.816406 C 225.886719 104.074219 235.976562 93.175781 244.378906 80.867188 C 247.421875 76.40625 250.21875 71.785156 252.78125 67.027344 C 254.164062 64.460938 255.183594 61.746094 255.765625 58.882812 C 255.984375 57.816406 256.234375 56.828125 257.480469 56.53125 C 258.816406 56.214844 259.496094 57.089844 260.195312 57.972656 C 263.863281 62.625 266.480469 67.859375 268.546875 73.371094 C 280.488281 105.1875 282.527344 137.730469 275.3125 170.824219 C 271.472656 188.445312 263.714844 204.414062 254.058594 219.570312 C 241.75 238.898438 224.820312 253.054688 205.191406 264.253906 C 191.125 272.28125 175.78125 275.949219 159.722656 276.953125 C 155.886719 277.191406 155.859375 277.167969 155.914062 280.949219 C 156.015625 287.683594 156.34375 294.40625 157.429688 301.070312 C 157.484375 301.414062 157.484375 301.765625 157.503906 302.113281 C 157.558594 303.253906 157.117188 304.09375 155.925781 304.222656 C 154.738281 304.355469 154.0625 303.601562 153.894531 302.511719 C 153.507812 299.984375 153.117188 297.457031 152.890625 294.914062 C 152.410156 289.539062 152.132812 284.148438 152.207031 278.75 C 152.21875 277.882812 152.269531 277.007812 152.414062 276.15625 C 152.691406 274.476562 153.535156 273.5625 155.429688 273.46875 C 164.9375 272.984375 174.34375 271.898438 183.558594 269.28125 C 195.777344 265.816406 206.527344 259.589844 216.90625 252.476562 C 235.523438 239.722656 249.179688 222.792969 259.503906 202.875 C 272.753906 177.316406 277.203125 150.09375 275.246094 121.597656 C 274.3125 108.039062 272.054688 94.714844 267.660156 81.816406 C 265.390625 75.160156 263.027344 68.539062 258.792969 62.371094 Z M 100.34375 239.769531 C 106.25 252.105469 114.253906 262.753906 125.261719 271.007812 C 128.203125 273.214844 131.429688 274.941406 134.613281 276.734375 C 135.625 277.304688 136.714844 277.257812 137.34375 276.148438 C 137.972656 275.03125 137.398438 274.148438 136.417969 273.511719 C 136.027344 273.257812 135.609375 273.054688 135.207031 272.816406 C 132.609375 271.289062 129.917969 269.910156 127.519531 268.046875 C 109.367188 253.890625 99.421875 235.015625 96.105469 212.515625 C 93.140625 192.371094 97.605469 173.644531 107.78125 156.199219 C 118.730469 137.433594 133.148438 121.921875 150.976562 109.488281 C 167.804688 97.753906 185.882812 88.300781 204.234375 79.292969 C 214.839844 74.089844 225.300781 68.617188 235.0625 61.910156 C 240.507812 58.167969 245.589844 53.964844 250.507812 49.558594 C 250.890625 49.214844 251.332031 48.632812 251.816406 48.964844 C 252.335938 49.328125 251.820312 49.917969 251.65625 50.371094 C 250.003906 54.910156 247.996094 59.28125 245.453125 63.398438 C 237.738281 75.902344 228.28125 87.027344 218.328125 97.746094 C 205.523438 111.542969 192.308594 124.960938 180.136719 139.34375 C 169.144531 152.335938 158.585938 165.644531 150.386719 180.648438 C 145.394531 189.789062 141.015625 199.195312 138.964844 209.519531 C 138.125 213.738281 137.761719 218.011719 137.582031 222.304688 C 137.53125 223.492188 137.929688 224.429688 139.242188 224.511719 C 140.511719 224.585938 141.121094 223.765625 141.238281 222.570312 C 141.328125 221.648438 141.378906 220.71875 141.4375 219.792969 C 141.773438 214.394531 142.566406 209.066406 144.21875 203.902344 C 148.835938 189.46875 156.347656 176.550781 165.125 164.34375 C 177.367188 147.316406 191.351562 131.753906 205.734375 116.546875 C 217.476562 104.128906 229.445312 91.914062 239.773438 78.238281 C 246.335938 69.546875 252.324219 60.523438 255.734375 50.03125 C 256.523438 47.597656 257.234375 45.148438 257.570312 42.609375 C 257.714844 41.539062 257.589844 40.453125 256.464844 39.910156 C 255.320312 39.359375 254.460938 39.980469 253.746094 40.824219 C 248.847656 46.617188 242.988281 51.339844 236.992188 55.890625 C 225.667969 64.476562 213.035156 70.8125 200.363281 77.0625 C 184.828125 84.71875 169.535156 92.773438 154.980469 102.222656 C 135.503906 114.867188 119.257812 130.640625 106.890625 150.402344 C 92.214844 173.847656 87.585938 198.828125 95.636719 227.75 C 96.480469 230.558594 98.179688 235.25 100.34375 239.769531 Z M 138.660156 228.664062 C 137.355469 229.027344 137.222656 230.101562 137.496094 231.183594 C 137.75 232.199219 138.457031 232.792969 139.578125 232.488281 C 140.769531 232.167969 141.265625 231.355469 141.058594 230.085938 C 140.597656 229.066406 139.90625 228.320312 138.660156 228.664062 Z M 156.230469 307.726562 C 155.15625 308.035156 154.773438 308.808594 155.097656 309.863281 C 155.40625 310.855469 156.152344 311.222656 157.121094 310.945312 C 158.183594 310.640625 158.546875 309.875 158.265625 308.789062 C 157.898438 307.855469 157.210938 307.445312 156.230469 307.726562 Z M 156.230469 307.726562 " fill-opacity="1" fill-rule="nonzero"/><path fill="#433831" d="M 258.792969 62.371094 C 256.351562 69.363281 252.472656 75.21875 248.671875 81.097656 C 241.785156 91.761719 233.347656 101.183594 224.789062 110.488281 C 215.335938 120.757812 205.625 130.789062 196.679688 141.53125 C 185.433594 155.035156 176.316406 169.886719 168.222656 185.417969 C 161.199219 198.902344 155.371094 212.898438 152.164062 227.792969 C 146.734375 253.019531 145.183594 278.519531 147.816406 304.253906 C 149.199219 317.808594 151.246094 331.226562 155.03125 344.332031 C 155.898438 347.347656 156.972656 350.304688 157.953125 353.285156 C 158.042969 353.5625 158.164062 353.828125 158.234375 354.109375 C 158.546875 355.324219 158.613281 356.523438 157.128906 356.964844 C 155.769531 357.367188 155.082031 356.441406 154.695312 355.316406 C 153.789062 352.675781 152.875 350.035156 152.066406 347.367188 C 148.304688 334.980469 146.136719 322.285156 144.605469 309.449219 C 142.648438 293.03125 142.300781 276.585938 143.699219 260.121094 C 144.867188 246.417969 146.550781 232.777344 150.40625 219.523438 C 155.46875 202.128906 163.289062 185.980469 172.238281 170.292969 C 184.019531 149.648438 199.386719 131.90625 215.65625 114.816406 C 225.886719 104.074219 235.976562 93.175781 244.378906 80.867188 C 247.421875 76.40625 250.21875 71.785156 252.78125 67.027344 C 254.164062 64.460938 255.183594 61.746094 255.765625 58.882812 C 255.984375 57.816406 256.234375 56.828125 257.480469 56.53125 C 258.816406 56.214844 259.496094 57.089844 260.195312 57.972656 C 263.863281 62.625 266.480469 67.859375 268.546875 73.371094 C 280.488281 105.1875 282.527344 137.730469 275.3125 170.824219 C 271.472656 188.445312 263.714844 204.414062 254.058594 219.570312 C 241.75 238.898438 224.820312 253.054688 205.191406 264.253906 C 191.125 272.28125 175.78125 275.949219 159.722656 276.953125 C 155.886719 277.191406 155.859375 277.167969 155.914062 280.949219 C 156.015625 287.683594 156.34375 294.40625 157.429688 301.070312 C 157.484375 301.414062 157.484375 301.765625 157.503906 302.113281 C 157.558594 303.253906 157.117188 304.09375 155.925781 304.222656 C 154.738281 304.355469 154.0625 303.601562 153.894531 302.511719 C 153.507812 299.984375 153.117188 297.457031 152.890625 294.914062 C 152.410156 289.539062 152.132812 284.148438 152.207031 278.75 C 152.21875 277.882812 152.269531 277.007812 152.414062 276.15625 C 152.691406 274.476562 153.535156 273.5625 155.429688 273.46875 C 164.9375 272.984375 174.34375 271.898438 183.558594 269.28125 C 195.777344 265.816406 206.527344 259.589844 216.90625 252.476562 C 235.523438 239.722656 249.179688 222.792969 259.503906 202.875 C 272.753906 177.316406 277.203125 150.09375 275.246094 121.597656 C 274.3125 108.039062 272.054688 94.714844 267.660156 81.816406 C 265.390625 75.160156 263.027344 68.539062 258.792969 62.371094 Z M 100.34375 239.769531 C 106.25 252.105469 114.253906 262.753906 125.261719 271.007812 C 128.203125 273.214844 131.429688 274.941406 134.613281 276.734375 C 135.625 277.304688 136.714844 277.257812 137.34375 276.148438 C 137.972656 275.03125 137.398438 274.148438 136.417969 273.511719 C 136.027344 273.257812 135.609375 273.054688 135.207031 272.816406 C 132.609375 271.289062 129.917969 269.910156 127.519531 268.046875 C 109.367188 253.890625 99.421875 235.015625 96.105469 212.515625 C 93.140625 192.371094 97.605469 173.644531 107.78125 156.199219 C 118.730469 137.433594 133.148438 121.921875 150.976562 109.488281 C 167.804688 97.753906 185.882812 88.300781 204.234375 79.292969 C 214.839844 74.089844 225.300781 68.617188 235.0625 61.910156 C 240.507812 58.167969 245.589844 53.964844 250.507812 49.558594 C 250.890625 49.214844 251.332031 48.632812 251.816406 48.964844 C 252.335938 49.328125 251.820312 49.917969 251.65625 50.371094 C 250.003906 54.910156 247.996094 59.28125 245.453125 63.398438 C 237.738281 75.902344 228.28125 87.027344 218.328125 97.746094 C 205.523438 111.542969 192.308594 124.960938 180.136719 139.34375 C 169.144531 152.335938 158.585938 165.644531 150.386719 180.648438 C 145.394531 189.789062 141.015625 199.195312 138.964844 209.519531 C 138.125 213.738281 137.761719 218.011719 137.582031 222.304688 C 137.53125 223.492188 137.929688 224.429688 139.242188 224.511719 C 140.511719 224.585938 141.121094 223.765625 141.238281 222.570312 C 141.328125 221.648438 141.378906 220.71875 141.4375 219.792969 C 141.773438 214.394531 142.566406 209.066406 144.21875 203.902344 C 148.835938 189.46875 156.347656 176.550781 165.125 164.34375 C 177.367188 147.316406 191.351562 131.753906 205.734375 116.546875 C 217.476562 104.128906 229.445312 91.914062 239.773438 78.238281 C 246.335938 69.546875 252.324219 60.523438 255.734375 50.03125 C 256.523438 47.597656 257.234375 45.148438 257.570312 42.609375 C 257.714844 41.539062 257.589844 40.453125 256.464844 39.910156 C 255.320312 39.359375 254.460938 39.980469 253.746094 40.824219 C 248.847656 46.617188 242.988281 51.339844 236.992188 55.890625 C 225.667969 64.476562 213.035156 70.8125 200.363281 77.0625 C 184.828125 84.71875 169.535156 92.773438 154.980469 102.222656 C 135.503906 114.867188 119.257812 130.640625 106.890625 150.402344 C 92.214844 173.847656 87.585938 198.828125 95.636719 227.75 C 96.480469 230.558594 98.179688 235.25 100.34375 239.769531 Z M 138.660156 228.664062 C 137.355469 229.027344 137.222656 230.101562 137.496094 231.183594 C 137.75 232.199219 138.457031 232.792969 139.578125 232.488281 C 140.769531 232.167969 141.265625 231.355469 141.058594 230.085938 C 140.597656 229.066406 139.90625 228.320312 138.660156 228.664062 Z M 156.230469 307.726562 C 155.15625 308.035156 154.773438 308.808594 155.097656 309.863281 C 155.40625 310.855469 156.152344 311.222656 157.121094 310.945312 C 158.183594 310.640625 158.546875 309.875 158.265625 308.789062 C 157.898438 307.855469 157.210938 307.445312 156.230469 307.726562 Z M 156.230469 307.726562 " fill-opacity="1" fill-rule="nonzero"/></g></g></g><g clip-path="url(#id6)"><path fill="#f1cfc2" d="M 228.109375 284.015625 C 227.597656 282.46875 226.878906 281.128906 225.953125 280.148438 C 225.488281 279.632812 224.925781 279.117188 224.308594 278.707031 C 223.792969 278.34375 223.175781 278.035156 222.613281 277.777344 C 222.203125 277.625 221.789062 277.46875 221.429688 277.316406 C 221.171875 277.210938 220.917969 277.109375 220.660156 277.003906 L 220.351562 276.851562 C 219.890625 276.644531 219.375 276.4375 218.859375 276.285156 C 218.089844 276.128906 217.320312 276.027344 216.601562 275.921875 C 215.933594 275.820312 215.265625 275.820312 214.492188 275.769531 C 214.339844 275.769531 214.132812 275.769531 213.980469 275.769531 C 212.847656 275.769531 211.667969 275.871094 210.28125 276.078125 C 209.097656 276.230469 207.863281 276.542969 206.683594 277.003906 C 206.066406 277.210938 205.449219 277.46875 204.9375 277.777344 C 204.371094 278.085938 203.804688 278.550781 203.292969 279.117188 C 202.777344 279.738281 202.316406 280.199219 201.957031 280.714844 C 201.800781 280.972656 201.59375 281.230469 201.441406 281.488281 C 201.339844 281.644531 201.234375 281.796875 201.132812 281.953125 C 200.875 282.363281 200.621094 282.726562 200.464844 283.136719 C 200.257812 283.550781 200.054688 284.066406 199.898438 284.632812 C 199.796875 285.046875 199.695312 285.457031 199.644531 285.871094 C 199.589844 285.972656 199.589844 286.128906 199.539062 286.230469 C 199.386719 286.902344 199.285156 287.570312 199.179688 288.5 C 199.027344 289.785156 198.976562 291.125 199.078125 292.621094 C 199.128906 293.289062 199.179688 294.117188 199.386719 294.886719 C 199.589844 295.609375 199.847656 296.332031 200.207031 297 C 200.515625 297.570312 200.925781 298.1875 201.492188 298.855469 C 201.800781 299.269531 202.210938 299.628906 202.570312 299.992188 L 202.878906 300.300781 C 203.855469 301.277344 205.039062 302.105469 206.476562 302.824219 C 207.144531 303.132812 207.863281 303.390625 208.738281 303.648438 C 209.558594 303.855469 210.433594 304.011719 211.101562 304.113281 C 211.71875 304.21875 212.386719 304.21875 213.261719 304.269531 C 213.464844 304.269531 213.621094 304.269531 213.824219 304.269531 C 213.980469 304.269531 214.132812 304.269531 214.289062 304.269531 C 214.800781 304.269531 215.265625 304.164062 215.625 304.113281 C 216.292969 304.011719 216.960938 303.855469 217.679688 303.597656 C 218.398438 303.390625 219.117188 303.03125 219.785156 302.722656 C 220.09375 302.566406 220.453125 302.414062 220.8125 302.207031 C 221.070312 302.050781 221.328125 301.898438 221.535156 301.742188 L 221.6875 301.640625 C 222.253906 301.226562 222.816406 300.765625 223.539062 300.09375 C 224.152344 299.527344 224.617188 299.011719 225.027344 298.546875 C 225.59375 297.929688 226.003906 297.15625 226.414062 296.484375 C 226.824219 295.765625 227.132812 294.992188 227.441406 294.269531 C 227.699219 293.652344 227.957031 292.980469 228.109375 292.363281 C 228.316406 291.640625 228.417969 290.867188 228.523438 290.148438 C 228.574219 289.527344 228.625 288.859375 228.675781 288.085938 C 228.675781 287.261719 228.574219 286.4375 228.46875 285.765625 C 228.46875 285.25 228.316406 284.683594 228.109375 284.015625 Z M 228.109375 284.015625 " fill-opacity="1" fill-rule="nonzero"/></g></svg>