<svg xmlns="http://www.w3.org/2000/svg" xmlns:xlink="http://www.w3.org/1999/xlink" width="500" zoomAndPan="magnify" viewBox="0 0 375 374.999991" height="500" preserveAspectRatio="xMidYMid meet" version="1.0"><defs><clipPath id="id1"><path d="M 93 132 L 319 132 L 319 349.328125 L 93 349.328125 Z M 93 132 " clip-rule="nonzero"/></clipPath><clipPath id="id2"><path d="M 52.75 70 L 123 70 L 123 178 L 52.75 178 Z M 52.75 70 " clip-rule="nonzero"/></clipPath><clipPath id="id3"><path d="M 247 25.328125 L 314 25.328125 L 314 113 L 247 113 Z M 247 25.328125 " clip-rule="nonzero"/></clipPath></defs><path fill="#93cbbe" d="M 265.46875 78.3125 C 259.703125 65.226562 261.710938 47.027344 271.492188 33.941406 C 276.742188 46.25 274.148438 66.910156 265.46875 78.3125 Z M 89.648438 79.671875 C 85.890625 95.542969 91.269531 113.03125 101.699219 122.746094 C 105.132812 108.886719 99.367188 88.871094 89.648438 79.671875 Z M 75.203125 143.667969 C 84.855469 156.816406 101.699219 164.007812 115.886719 162.324219 C 107.527344 150.730469 88.546875 142.179688 75.203125 143.667969 Z M 304.339844 89.582031 C 288.273438 86.730469 271.105469 93.082031 262.035156 104.089844 C 276.09375 106.8125 295.722656 99.882812 304.339844 89.582031 Z M 304.339844 89.582031 " fill-opacity="1" fill-rule="nonzero"/><path fill="#f1cfc2" d="M 173.023438 202.09375 C 204.507812 195.746094 232.105469 200.539062 234.566406 212.78125 C 237.03125 225.023438 213.511719 240.117188 181.964844 246.464844 C 150.414062 252.8125 122.882812 248.019531 120.421875 235.777344 C 117.957031 223.535156 141.476562 208.507812 173.023438 202.09375 Z M 151.710938 130.585938 L 210.273438 121.582031 C 212.734375 121.191406 214.421875 118.925781 214.03125 116.464844 L 208.394531 79.738281 C 208.070312 77.535156 206.191406 75.914062 203.992188 75.914062 C 203.730469 75.914062 203.535156 75.914062 203.277344 75.980469 L 144.714844 84.984375 C 143.09375 85.242188 142.1875 86.214844 141.796875 86.796875 C 141.410156 87.378906 140.761719 88.546875 140.957031 90.164062 L 146.59375 126.890625 C 146.917969 129.09375 148.796875 130.714844 150.996094 130.714844 C 151.257812 130.585938 151.515625 130.585938 151.710938 130.585938 Z M 151.710938 130.585938 " fill-opacity="1" fill-rule="nonzero"/><g clip-path="url(#id1)"><path fill="#433831" d="M 306.671875 159.410156 C 307.773438 158.179688 308.875 157.011719 309.84375 155.910156 C 316.324219 148.914062 321.894531 142.828125 316.195312 137.0625 C 315.15625 136.023438 313.667969 135.507812 311.789062 135.570312 C 300.582031 136.023438 273.242188 159.34375 267.089844 166.664062 C 264.367188 169.835938 255.558594 175.730469 245.0625 181.820312 C 247.652344 177.871094 250.441406 173.789062 253.226562 169.773438 C 264.949219 152.800781 271.949219 142.113281 270.070312 136.15625 C 269.550781 134.535156 268.382812 133.304688 266.699219 132.65625 C 258.34375 129.417969 243.25 146.128906 225.886719 166.535156 C 222.128906 170.9375 218.957031 174.761719 217.011719 176.640625 C 214.613281 178.96875 208.332031 181.949219 200.425781 184.996094 C 206.644531 177.871094 211.3125 169.644531 210.339844 163.878906 C 209.886719 161.351562 208.460938 159.539062 206.128906 158.632812 C 199.390625 155.910156 190.125 163.8125 180.28125 172.167969 C 176.78125 175.148438 173.476562 177.933594 170.433594 180.070312 C 166.609375 182.792969 160.652344 185.449219 153.71875 188.425781 C 141.410156 193.804688 126.121094 200.476562 114.332031 211.746094 C 99.429688 225.996094 98.914062 248.085938 98.523438 262.722656 C 98.394531 266.675781 98.328125 270.042969 98.003906 272.761719 C 97.292969 278.789062 96.773438 292.90625 96.191406 307.871094 C 95.609375 324.066406 94.832031 344.144531 93.925781 346.734375 C 93.535156 347.707031 94.054688 348.808594 95.089844 349.195312 C 95.285156 349.261719 95.542969 349.328125 95.738281 349.328125 C 96.515625 349.328125 97.292969 348.808594 97.550781 348.03125 C 98.589844 345.117188 99.238281 330.996094 100.078125 308 C 100.597656 293.816406 101.179688 279.113281 101.894531 273.21875 C 102.214844 270.300781 102.347656 266.867188 102.410156 262.851562 C 102.734375 248.019531 103.253906 227.746094 116.988281 214.597656 C 128.257812 203.777344 143.222656 197.300781 155.273438 192.054688 C 162.398438 188.945312 168.554688 186.289062 172.699219 183.308594 C 175.875 181.042969 179.242188 178.191406 182.742188 175.214844 C 190.449219 168.671875 200.101562 160.445312 204.703125 162.324219 C 205.804688 162.777344 206.386719 163.488281 206.582031 164.65625 C 207.359375 169.253906 202.113281 179.292969 191.941406 188.296875 C 182.675781 191.601562 172.507812 194.839844 164.214844 197.496094 C 157.347656 199.699219 151.386719 201.578125 148.082031 202.871094 C 147.109375 203.261719 146.59375 204.363281 146.980469 205.332031 C 147.242188 206.109375 148.019531 206.5625 148.796875 206.5625 C 148.988281 206.5625 149.25 206.5 149.441406 206.433594 C 152.683594 205.203125 158.578125 203.324219 165.445312 201.125 C 174.125 198.339844 184.167969 195.164062 193.367188 191.859375 C 193.558594 191.796875 193.691406 191.796875 193.882812 191.667969 C 205.867188 187.390625 216.234375 183.050781 219.863281 179.488281 C 221.933594 177.480469 225.042969 173.789062 228.996094 169.125 C 235.085938 161.933594 242.730469 152.929688 249.792969 146.066406 C 260.351562 135.894531 264.238281 135.832031 265.46875 136.285156 C 266.246094 136.542969 266.441406 136.996094 266.570312 137.320312 C 267.996094 141.917969 258.539062 155.585938 250.179688 167.636719 C 245.90625 173.789062 241.5625 180.136719 238.066406 185.902344 C 225.109375 193.15625 211.117188 200.023438 203.277344 202.742188 C 202.304688 203.066406 201.722656 204.167969 202.113281 205.203125 C 202.371094 205.980469 203.148438 206.5 203.925781 206.5 C 204.121094 206.5 204.378906 206.433594 204.574219 206.371094 C 212.152344 203.714844 226.082031 196.976562 240.140625 189.140625 C 240.332031 189.074219 240.464844 189.011719 240.59375 188.882812 C 247.976562 184.800781 265.40625 174.695312 270.132812 169.125 C 276.804688 161.222656 303.109375 139.78125 312.046875 139.394531 C 312.566406 139.394531 313.214844 139.394531 313.601562 139.78125 C 316.519531 142.695312 314.25 145.613281 307.1875 153.320312 C 304.921875 155.78125 302.332031 158.566406 299.867188 161.675781 C 299.804688 161.804688 299.738281 161.871094 299.675781 162 C 297.472656 163.101562 295.074219 164.460938 292.355469 166.210938 C 285.164062 170.808594 277.972656 176.445312 273.890625 179.746094 C 273.890625 179.683594 273.828125 179.617188 273.828125 179.617188 C 273.050781 177.933594 271.558594 176.832031 269.421875 176.316406 C 262.164062 174.628906 254.390625 186.355469 245.386719 199.957031 C 239.816406 208.378906 234.050781 217.058594 229.253906 220.683594 C 219.085938 228.457031 205.089844 228.199219 190.257812 227.941406 C 167.777344 227.550781 142.253906 227.03125 125.667969 255.855469 C 125.148438 256.765625 125.472656 257.929688 126.378906 258.449219 C 127.289062 258.964844 128.453125 258.644531 128.972656 257.734375 C 144.453125 230.855469 167.710938 231.308594 190.191406 231.695312 C 205.675781 231.957031 220.378906 232.28125 231.585938 223.664062 C 236.898438 219.582031 242.535156 211.035156 248.5625 201.964844 C 255.363281 191.667969 263.851562 178.839844 268.578125 179.941406 C 270.003906 180.265625 270.261719 180.847656 270.394531 181.042969 C 270.585938 181.496094 270.652344 182.144531 270.585938 182.921875 C 270.523438 183.050781 270.523438 183.179688 270.523438 183.375 C 269.808594 187.648438 265.40625 195.683594 260.417969 204.75 C 256.722656 211.488281 252.449219 219.128906 248.109375 228.003906 C 234.050781 256.441406 198.871094 269.914062 177.882812 278.011719 C 175.808594 278.789062 173.867188 279.566406 172.117188 280.210938 C 155.402344 286.820312 158.835938 311.628906 161.558594 331.578125 C 162.335938 337.40625 163.113281 342.914062 163.308594 347.382812 C 163.371094 348.417969 164.214844 349.195312 165.25 349.195312 C 165.25 349.195312 165.316406 349.195312 165.316406 349.195312 C 166.351562 349.132812 167.195312 348.289062 167.128906 347.1875 C 166.933594 342.523438 166.15625 336.953125 165.378906 330.996094 C 162.851562 312.40625 159.679688 289.214844 173.542969 283.710938 C 175.292969 282.996094 177.234375 282.285156 179.242188 281.507812 C 200.6875 273.28125 236.445312 259.550781 251.28125 230.078125 C 259.316406 224.378906 274.667969 210.839844 287.234375 198.402344 C 298.960938 186.742188 313.085938 171.390625 313.734375 164.265625 C 313.925781 162.324219 313.148438 161.222656 312.566406 160.574219 C 311.011719 159.410156 309.132812 159.019531 306.671875 159.410156 Z M 309.652344 164.074219 C 309.261719 168.605469 299.738281 180.523438 284.257812 195.8125 C 273.566406 206.433594 262.683594 216.085938 255.039062 222.238281 C 258.019531 216.539062 260.871094 211.359375 263.460938 206.628906 C 268.96875 196.652344 272.917969 189.527344 273.890625 184.542969 C 277 181.949219 285.617188 174.890625 294.234375 169.382812 C 307.125 161.15625 309.457031 163.230469 309.523438 163.359375 C 309.585938 163.488281 309.652344 163.683594 309.652344 164.074219 Z M 309.652344 164.074219 " fill-opacity="1" fill-rule="nonzero"/></g><g clip-path="url(#id2)"><path fill="#433831" d="M 118.996094 175.601562 C 119.125 176.574219 119.902344 177.351562 120.875 177.351562 C 120.9375 177.351562 121.003906 177.351562 121.066406 177.351562 C 122.105469 177.222656 122.882812 176.316406 122.816406 175.277344 C 122.558594 172.363281 122.105469 169.644531 121.523438 166.988281 C 119.125 151.507812 119.449219 140.558594 122.363281 136.933594 C 123.011719 136.089844 122.882812 134.925781 122.039062 134.210938 C 121.199219 133.5625 120.03125 133.695312 119.320312 134.535156 C 116.988281 137.449219 115.886719 142.957031 116.015625 150.859375 C 108.757812 135.636719 97.164062 125.335938 87.25 116.59375 C 79.21875 109.46875 72.222656 103.316406 70.214844 96.449219 C 75.589844 94.699219 79.476562 89.710938 79.476562 83.753906 C 79.476562 76.367188 73.519531 70.410156 66.132812 70.410156 C 58.746094 70.410156 52.851562 76.367188 52.851562 83.753906 C 52.851562 91.070312 58.8125 97.097656 66.199219 97.097656 C 66.261719 97.097656 66.390625 97.097656 66.457031 97.097656 C 68.335938 104.027344 74.101562 109.855469 81.097656 116.203125 C 76.171875 116.074219 68.984375 115.039062 65.160156 110.699219 C 64.449219 109.921875 63.21875 109.855469 62.441406 110.570312 C 61.664062 111.28125 61.597656 112.511719 62.308594 113.289062 C 67.492188 119.121094 76.820312 120.089844 82.457031 120.089844 C 83.625 120.089844 84.59375 120.027344 85.371094 120.027344 C 99.238281 132.203125 116.144531 147.554688 118.996094 175.601562 Z M 56.675781 83.753906 C 56.675781 78.507812 60.949219 74.230469 66.199219 74.230469 C 71.445312 74.230469 75.65625 78.507812 75.65625 83.753906 C 75.65625 89 71.378906 93.273438 66.132812 93.273438 C 60.886719 93.273438 56.675781 88.933594 56.675781 83.753906 Z M 56.675781 83.753906 " fill-opacity="1" fill-rule="nonzero"/></g><g clip-path="url(#id3)"><path fill="#433831" d="M 249.726562 112.707031 C 249.792969 112.707031 249.792969 112.707031 249.855469 112.707031 C 250.828125 112.707031 251.605469 111.996094 251.734375 111.023438 C 252.707031 103.960938 261.648438 96.1875 271.105469 88.027344 C 276.222656 83.625 281.601562 78.894531 286.457031 73.84375 C 286.523438 73.777344 286.652344 73.710938 286.71875 73.582031 C 286.914062 73.390625 287.105469 73.128906 287.300781 72.933594 C 293.519531 66.261719 298.574219 58.878906 300.710938 50.457031 C 307.578125 50.394531 313.214844 44.824219 313.214844 37.894531 C 313.214844 30.960938 307.578125 25.328125 300.644531 25.328125 C 293.714844 25.328125 288.078125 30.960938 288.078125 37.894531 C 288.078125 43.527344 291.769531 48.257812 296.890625 49.875 C 295.65625 54.539062 293.390625 58.878906 290.476562 63.023438 C 290.539062 62.441406 290.539062 61.859375 290.539062 61.277344 C 290.605469 57.066406 289.890625 53.308594 289.375 51.949219 C 288.984375 50.976562 287.882812 50.457031 286.914062 50.78125 C 285.941406 51.171875 285.421875 52.273438 285.746094 53.242188 C 286.523438 55.382812 287.882812 65.746094 284.386719 70.34375 C 279.527344 75.589844 273.890625 80.449219 268.644531 85.046875 C 261.839844 90.941406 255.621094 96.320312 251.800781 101.695312 L 251.800781 88.742188 C 251.800781 87.703125 250.957031 86.796875 249.855469 86.796875 C 248.753906 86.796875 247.914062 87.640625 247.914062 88.742188 L 247.914062 110.761719 C 247.914062 111.800781 248.691406 112.640625 249.726562 112.707031 Z M 291.902344 38.023438 C 291.902344 33.230469 295.789062 29.34375 300.582031 29.34375 C 305.375 29.34375 309.261719 33.230469 309.261719 38.023438 C 309.261719 42.816406 305.375 46.703125 300.582031 46.703125 C 295.789062 46.703125 291.902344 42.816406 291.902344 38.023438 Z M 291.902344 38.023438 " fill-opacity="1" fill-rule="nonzero"/></g><path fill="#433831" d="M 133.894531 128.769531 C 134.609375 133.371094 137.070312 137.386719 140.761719 140.105469 C 143.742188 142.308594 147.304688 143.472656 150.996094 143.472656 C 151.90625 143.472656 152.746094 143.410156 153.652344 143.28125 L 212.21875 134.277344 C 216.816406 133.5625 220.832031 131.101562 223.554688 127.410156 C 226.277344 123.652344 227.441406 119.054688 226.730469 114.519531 L 221.09375 77.792969 C 219.925781 70.410156 214.289062 64.773438 207.359375 63.414062 L 204.703125 45.988281 C 204.574219 44.953125 203.535156 44.242188 202.5 44.371094 L 135.96875 54.539062 C 135.449219 54.605469 134.996094 54.863281 134.738281 55.316406 C 134.476562 55.769531 134.285156 56.222656 134.414062 56.742188 L 137.070312 74.167969 C 134.867188 75.398438 132.921875 77.015625 131.433594 79.089844 C 128.710938 82.847656 127.546875 87.445312 128.257812 91.980469 Z M 138.429688 58.039062 L 201.203125 48.386719 L 203.472656 63.023438 C 202.757812 63.023438 202.046875 63.089844 201.335938 63.21875 L 142.769531 72.222656 C 142.058594 72.351562 141.34375 72.480469 140.699219 72.675781 Z M 141.34375 76.433594 L 203.925781 66.847656 C 210.46875 66.847656 216.234375 71.640625 217.269531 78.3125 L 222.90625 115.039062 C 223.425781 118.601562 222.582031 122.164062 220.445312 125.078125 C 218.308594 127.992188 215.132812 129.871094 211.570312 130.453125 L 153.007812 139.457031 C 149.441406 139.976562 145.878906 139.132812 142.964844 136.996094 C 140.050781 134.859375 138.171875 131.683594 137.589844 128.121094 L 131.953125 91.394531 C 130.980469 84.722656 135.0625 78.441406 141.34375 76.433594 Z M 141.34375 76.433594 " fill-opacity="1" fill-rule="nonzero"/></svg>